<svg width="50" height="50" viewBox="0 0 50 50" fill="none" xmlns="http://www.w3.org/2000/svg">
<path d="M22.9167 18.7499H31.25C31.8025 18.7499 32.3324 18.5304 32.7231 18.1397C33.1138 17.749 33.3333 17.2191 33.3333 16.6666C33.3333 16.1141 33.1138 15.5841 32.7231 15.1934C32.3324 14.8027 31.8025 14.5833 31.25 14.5833H27.0833V12.4999C27.0833 11.9474 26.8638 11.4175 26.4731 11.0268C26.0824 10.6361 25.5525 10.4166 25 10.4166C24.4475 10.4166 23.9176 10.6361 23.5269 11.0268C23.1362 11.4175 22.9167 11.9474 22.9167 12.4999V14.5833C21.2591 14.5833 19.6694 15.2417 18.4973 16.4138C17.3252 17.5859 16.6667 19.1757 16.6667 20.8333C16.6667 22.4909 17.3252 24.0806 18.4973 25.2527C19.6694 26.4248 21.2591 27.0833 22.9167 27.0833H27.0833C27.6359 27.0833 28.1658 27.3027 28.5565 27.6934C28.9472 28.0841 29.1667 28.6141 29.1667 29.1666C29.1667 29.7191 28.9472 30.249 28.5565 30.6397C28.1658 31.0304 27.6359 31.2499 27.0833 31.2499H18.75C18.1975 31.2499 17.6676 31.4694 17.2769 31.8601C16.8862 32.2508 16.6667 32.7807 16.6667 33.3333C16.6667 33.8858 16.8862 34.4157 17.2769 34.8064C17.6676 35.1971 18.1975 35.4166 18.75 35.4166H22.9167V37.4999C22.9167 38.0525 23.1362 38.5824 23.5269 38.9731C23.9176 39.3638 24.4475 39.5833 25 39.5833C25.5525 39.5833 26.0824 39.3638 26.4731 38.9731C26.8638 38.5824 27.0833 38.0525 27.0833 37.4999V35.4166C28.7409 35.4166 30.3307 34.7581 31.5028 33.586C32.6749 32.4139 33.3333 30.8242 33.3333 29.1666C33.3333 27.509 32.6749 25.9193 31.5028 24.7472C30.3307 23.5751 28.7409 22.9166 27.0833 22.9166H22.9167C22.3641 22.9166 21.8342 22.6971 21.4435 22.3064C21.0528 21.9157 20.8333 21.3858 20.8333 20.8333C20.8333 20.2807 21.0528 19.7508 21.4435 19.3601C21.8342 18.9694 22.3641 18.7499 22.9167 18.7499V18.7499ZM25 2.08325C20.4675 2.08325 16.0368 3.42729 12.2682 5.94541C8.49956 8.46352 5.56227 12.0426 3.82777 16.2301C2.09326 20.4176 1.63943 25.0253 2.52368 29.4707C3.40792 33.9161 5.59052 37.9995 8.79548 41.2045C12.0004 44.4094 16.0838 46.592 20.5292 47.4762C24.9746 48.3605 29.5824 47.9067 33.7698 46.1722C37.9573 44.4377 41.5364 41.5004 44.0545 37.7317C46.5726 33.9631 47.9167 29.5324 47.9167 24.9999C47.9167 18.922 45.5022 13.0931 41.2045 8.79539C36.9068 4.49768 31.0779 2.08325 25 2.08325V2.08325ZM25 43.7499C21.2916 43.7499 17.6665 42.6503 14.5831 40.59C11.4996 38.5297 9.09641 35.6014 7.67726 32.1752C6.25812 28.7491 5.88681 24.9791 6.61028 21.342C7.33375 17.7048 9.11952 14.3639 11.7418 11.7417C14.364 9.11943 17.7049 7.33367 21.3421 6.61019C24.9792 5.88672 28.7492 6.25803 32.1753 7.67718C35.6014 9.09632 38.5298 11.4996 40.5901 14.583C42.6503 17.6664 43.75 21.2915 43.75 24.9999C43.75 29.9727 41.7746 34.7419 38.2583 38.2582C34.7419 41.7745 29.9728 43.7499 25 43.7499V43.7499Z" fill="black"/>
</svg>
