<svg xmlns="http://www.w3.org/2000/svg" fill="none" viewBox="0 0 48 48" height="24" width="24"><path stroke="#000000" stroke-linecap="round" stroke-linejoin="round" stroke-width="3" d="M36.4397 3.49399C38.6448 3.71238 40.2662 5.35742 40.4625 7.5646C40.7244 10.5072 41 15.5997 41 24C41 32.4003 40.7244 37.4928 40.4625 40.4354C40.2661 42.6426 38.6448 44.2876 36.4397 44.506C33.9358 44.754 29.952 45 24.0001 45C18.048 45 14.0642 44.754 11.5604 44.506C9.35532 44.2876 7.73397 42.6426 7.53755 40.4356C7.27567 37.493 7 32.4004 7 24C7 15.5996 7.27567 10.507 7.53755 7.56445C7.73397 5.35735 9.35532 3.71239 11.5604 3.494C14.0642 3.24601 18.048 3 24.0001 3C29.952 3 33.9358 3.24601 36.4397 3.49399Z"></path><path stroke="#000000" stroke-linecap="round" stroke-linejoin="round" stroke-width="3" d="M41 24H7"></path><path stroke="#000000" stroke-linecap="round" stroke-linejoin="round" stroke-width="3" d="M15 12V16"></path><path stroke="#000000" stroke-linecap="round" stroke-linejoin="round" stroke-width="3" d="M15 32V36"></path></svg>