<?xml version="1.0" encoding="utf-8"?>
<!-- Generator: Adobe Illustrator 23.1.1, SVG Export Plug-In . SVG Version: 6.00 Build 0)  -->
<svg version="1.1" id="guarantee" xmlns="http://www.w3.org/2000/svg" xmlns:xlink="http://www.w3.org/1999/xlink" x="0px" y="0px"
	 viewBox="0 0 132 132" style="enable-background:new 0 0 132 132;" xml:space="preserve">
<style type="text/css">
	.st0{fill:#FFFFFF;}
	.st1{fill:none;stroke:#E85710;stroke-width:3;stroke-linecap:round;stroke-linejoin:round;}
	.st2{fill:#E85710;}
</style>
<title>gp_non-reciprocal_orange</title>
<g id="caution">
	<circle class="st0" cx="66" cy="66" r="65"/>
	<g id="reciprocal_icon">
		<polyline class="st1" points="33.7,68.9 57,48.3 80.3,68.9 		"/>
		<polygon class="st1" points="57,48.3 37.8,65.3 37.8,92.8 76.1,92.8 76.1,65.3 		"/>
		<path class="st1" d="M62.8,92.8H51.2V79.3c0-0.7,0.7-1.2,1.6-1.2h8.4c0.9,0,1.6,0.5,1.6,1.2V92.8z"/>
		<path class="st1" d="M64.2,53.5c1.3-10.6,11-18.1,21.6-16.8s18.1,11,16.8,21.6S91.6,76.4,81,75.1c-1.7-0.2-3.3-0.6-4.8-1.2"/>
	</g>
</g>
<path class="st2" d="M76.7,61.5c-0.7-0.3-1.3-0.6-1.9-1.2c-0.6-0.5-1-1.2-1.3-1.9c-0.3-0.8-0.5-1.6-0.5-2.5c0-0.8,0.1-1.6,0.4-2.4
	c0.3-0.7,0.7-1.3,1.2-1.9c0.5-0.6,1.1-1,1.8-1.3c0.8-0.3,1.6-0.5,2.5-0.4c0.9,0,1.7,0.2,2.5,0.5c0.8,0.3,1.5,0.8,2.1,1.5L82,53.4
	c-0.8-0.8-1.9-1.2-3-1.2c-0.5,0-0.9,0.1-1.3,0.3c-0.4,0.2-0.8,0.4-1.1,0.8c-0.3,0.3-0.6,0.8-0.7,1.2c-0.2,0.5-0.3,1.1-0.3,1.6
	c0,0.7,0.1,1.3,0.4,1.9c0.3,0.6,0.7,1,1.2,1.4c0.6,0.3,1.2,0.5,1.9,0.5c0.8,0,1.7-0.2,2.4-0.7v-1.7h-2.6v-2h4.9v5
	c-0.6,0.5-1.3,0.8-2,1c-0.8,0.3-1.7,0.4-2.6,0.4C78.3,61.9,77.5,61.8,76.7,61.5z"/>
<path class="st2" d="M86,50.1h4.3c0.6,0,1.2,0.1,1.8,0.3c0.5,0.2,0.9,0.4,1.3,0.8c0.3,0.4,0.6,0.8,0.7,1.2c0.1,0.5,0.2,1,0.2,1.5
	c0,0.6-0.1,1.1-0.3,1.7c-0.2,0.5-0.5,0.9-0.9,1.2c-0.4,0.3-0.9,0.6-1.4,0.7c-0.6,0.2-1.2,0.2-1.8,0.2h-1.8v4H86V50.1z M89.8,55.8
	c0.6,0,1.2-0.1,1.6-0.5c0.7-0.7,0.7-1.8,0-2.6c0,0,0,0,0,0c-0.4-0.3-1-0.5-1.5-0.5h-1.7v3.6H89.8z"/>
</svg>
