<svg width="178" height="152" viewBox="0 0 178 152" fill="none" xmlns="http://www.w3.org/2000/svg">
<g clip-path="url(#clip0_1147_11196)">
<path d="M0.468262 102.44H177.532" stroke="black" stroke-linecap="round" stroke-linejoin="round"/>
<path d="M132.463 0.488831H44.9753C36.818 0.488831 30.2052 7.10912 30.2052 15.2757V116.346C30.2052 124.512 36.818 131.132 44.9753 131.132H132.463C140.62 131.132 147.233 124.512 147.233 116.346V15.2757C147.233 7.10912 140.62 0.488831 132.463 0.488831Z" fill="#F3F2F0" stroke="black" stroke-miterlimit="10"/>
<path fill-rule="evenodd" clip-rule="evenodd" d="M129.672 28.9279C129.681 28.8031 129.681 28.6777 129.672 28.5529C129.67 28.2266 129.605 27.9037 129.479 27.6027C129.353 27.3017 129.169 27.0285 128.938 26.7986C128.707 26.5687 128.432 26.3868 128.131 26.263C127.829 26.1393 127.506 26.0762 127.18 26.0775H126.815C126.419 25.3515 125.795 24.777 125.039 24.4432C124.283 24.1094 123.438 24.0352 122.635 24.232C121.833 24.4288 121.118 24.8857 120.602 25.5315C120.086 26.1773 119.797 26.9758 119.781 27.8027V27.859H119.631C119.245 27.863 118.871 27.9963 118.569 28.2375C118.267 28.4788 118.054 28.8142 117.964 29.1905C117.804 29.1607 117.641 29.145 117.477 29.1436C117.039 29.1385 116.604 29.2279 116.204 29.4059C115.803 29.5839 115.445 29.8462 115.154 30.175H130.271C130.307 29.9239 130.267 29.6676 130.155 29.44C130.043 29.2124 129.865 29.0241 129.644 28.8998L129.672 28.9279Z" fill="white"/>
<path fill-rule="evenodd" clip-rule="evenodd" d="M73.4385 20.986C73.4681 20.7653 73.4837 20.543 73.4853 20.3203C73.4968 19.1457 73.0768 18.0078 72.3052 17.1229C71.9497 16.7133 71.5109 16.3844 71.0183 16.158C70.5257 15.9317 69.9906 15.8131 69.4486 15.8102C69.2506 15.8103 69.053 15.8291 68.8586 15.8664C68.4807 15.004 67.9115 14.239 67.1942 13.6298C66.4769 13.0205 65.6303 12.5829 64.7188 12.3502C63.8302 12.1544 62.9074 12.1775 62.0296 12.4176C61.1519 12.6577 60.3456 13.1076 59.6799 13.7286C58.9647 14.4035 58.3966 15.2192 58.0114 16.1244C57.6262 17.0297 57.4321 18.0049 57.4415 18.9888V19.1107H57.1979C56.5416 19.1407 55.9155 19.3955 55.4244 19.8324C54.9334 20.2694 54.6072 20.8621 54.5005 21.5111C54.2404 21.4676 53.9775 21.4426 53.7138 21.4361C52.9878 21.4418 52.2727 21.6137 51.6234 21.9388C50.974 22.2638 50.4076 22.7334 49.9674 23.3114H74.4969C74.561 22.867 74.4993 22.4135 74.3188 22.0024C74.1383 21.5914 73.8463 21.2392 73.476 20.986H73.4385Z" fill="white"/>
<path fill-rule="evenodd" clip-rule="evenodd" d="M91.0183 58.8673H62.1525V38.3232L76.0703 20.0015L91.0183 38.3232V58.8673Z" fill="white"/>
<path fill-rule="evenodd" clip-rule="evenodd" d="M91.0184 58.8673H122.994V38.3232H91.0184V58.8673Z" fill="white"/>
<path d="M90.981 39.2515V58.6891" stroke="black" stroke-linecap="round" stroke-linejoin="round"/>
<path d="M123.256 39.2515V58.6891" stroke="black" stroke-linecap="round" stroke-linejoin="round"/>
<path fill-rule="evenodd" clip-rule="evenodd" d="M103.559 59.3361H110.94V46.3589H103.559V59.3361Z" fill="#E9E6E2"/>
<path fill-rule="evenodd" clip-rule="evenodd" d="M103.859 58.9517H110.631V46.6497H103.859V58.9517Z" stroke="black" stroke-linecap="round" stroke-linejoin="round"/>
<path fill-rule="evenodd" clip-rule="evenodd" d="M95.3549 52.0786H99.9535V46.3589H95.3549V52.0786Z" fill="#E9E6E2"/>
<path fill-rule="evenodd" clip-rule="evenodd" d="M113.993 52.0786H118.592V46.3589H113.993V52.0786Z" fill="#E9E6E2"/>
<path fill-rule="evenodd" clip-rule="evenodd" d="M74.2065 19.4482L59.9984 35.9135C59.8432 36.0917 59.727 36.3004 59.6572 36.5263C59.5873 36.7521 59.5654 36.99 59.5927 37.2248C59.62 37.4597 59.6961 37.6862 59.8159 37.8899C59.9358 38.0935 60.0968 38.2699 60.2887 38.4076L61.5063 39.3453L76.5668 22.3362L74.2065 19.4482Z" fill="#E77B5E"/>
<path fill-rule="evenodd" clip-rule="evenodd" d="M111.043 20.6391L125.56 37.7232C125.636 37.8198 125.681 37.9365 125.691 38.0588C125.701 38.1812 125.675 38.3038 125.617 38.4115C125.558 38.5192 125.469 38.6073 125.361 38.665C125.252 38.7226 125.13 38.7472 125.007 38.7358H91.29C90.8561 38.7413 90.4263 38.6508 90.0313 38.4709C89.6363 38.291 89.2857 38.0261 89.0047 37.695L74.2721 19.7202H108.926C109.32 19.7175 109.709 19.7998 110.068 19.9617C110.427 20.1235 110.747 20.3609 111.005 20.6578" fill="#E77B5E"/>
<path d="M111.043 20.6391L125.56 37.7232C125.636 37.8198 125.681 37.9365 125.691 38.0588C125.701 38.1812 125.675 38.3038 125.617 38.4115C125.558 38.5192 125.469 38.6073 125.361 38.665C125.252 38.7226 125.13 38.7472 125.007 38.7358H91.29C90.8561 38.7413 90.4263 38.6508 90.0313 38.4709C89.6363 38.291 89.2857 38.0261 89.0047 37.695L74.2721 19.7202H108.926C109.32 19.7175 109.709 19.7998 110.068 19.9617C110.427 20.1235 110.747 20.3609 111.005 20.6578" stroke="black" stroke-linecap="round" stroke-linejoin="round"/>
<path fill-rule="evenodd" clip-rule="evenodd" d="M75.5927 38.4733C75.5927 40.5559 74.9758 42.5917 73.8201 44.3234C72.6644 46.055 71.0217 47.4047 69.0998 48.2016C67.1779 48.9986 65.0631 49.2071 63.0228 48.8008C60.9825 48.3946 59.1084 47.3917 57.6374 45.9191C56.1665 44.4464 55.1647 42.5702 54.7589 40.5276C54.353 38.485 54.5613 36.3678 55.3574 34.4437C56.1535 32.5196 57.5016 30.8751 59.2313 29.718C60.9609 28.561 62.9945 27.9434 65.0747 27.9434C66.456 27.9434 67.8237 28.2158 69.0998 28.745C70.3759 29.2742 71.5354 30.0498 72.512 31.0276C73.4887 32.0054 74.2635 33.1661 74.7921 34.4437C75.3206 35.7212 75.5927 37.0905 75.5927 38.4733Z" fill="white"/>
<path d="M75.5927 38.4733C75.5927 40.5559 74.9758 42.5917 73.8201 44.3234C72.6644 46.055 71.0217 47.4047 69.0998 48.2016C67.1779 48.9986 65.0631 49.2071 63.0228 48.8008C60.9825 48.3945 59.1084 47.3917 57.6374 45.9191C56.1665 44.4464 55.1647 42.5702 54.7589 40.5276C54.353 38.485 54.5613 36.3678 55.3574 34.4437C56.1535 32.5196 57.5016 30.8751 59.2313 29.718C60.9609 28.561 62.9945 27.9434 65.0747 27.9434C66.456 27.9434 67.8237 28.2158 69.0998 28.745C70.3759 29.2742 71.5354 30.0498 72.512 31.0276C73.4887 32.0054 74.2635 33.1661 74.7921 34.4437C75.3206 35.7212 75.5927 37.0905 75.5927 38.4733" stroke="black" stroke-linecap="round" stroke-linejoin="round"/>
<path d="M65.0186 34.0663V57.9859" stroke="black" stroke-linecap="round" stroke-linejoin="round"/>
<path d="M60.8788 37.2731L64.8499 41.2581" stroke="black" stroke-linecap="round" stroke-linejoin="round"/>
<path d="M71.1813 39.0828L65.1028 45.1588" stroke="black" stroke-linecap="round" stroke-linejoin="round"/>
<path fill-rule="evenodd" clip-rule="evenodd" d="M59.0243 47.8592C59.0261 49.2843 58.6056 50.6778 57.8159 51.8635C57.0263 53.0492 55.903 53.9736 54.5882 54.5198C53.2735 55.066 51.8264 55.2094 50.4302 54.9318C49.0341 54.6543 47.7515 53.9683 46.745 52.9606C45.7385 51.9529 45.0532 50.6689 44.7759 49.2711C44.4987 47.8734 44.6419 46.4247 45.1875 45.1085C45.7331 43.7922 46.6565 42.6677 47.8408 41.8771C49.0252 41.0865 50.4171 40.6655 51.8406 40.6674C53.7458 40.6674 55.573 41.4251 56.9202 42.7738C58.2674 44.1225 59.0243 45.9518 59.0243 47.8592Z" fill="white" stroke="black" stroke-linecap="round" stroke-linejoin="round"/>
<path d="M51.8031 44.84V58.9611" stroke="black" stroke-linecap="round" stroke-linejoin="round"/>
<path d="M48.9746 47.0341L51.6907 49.7533" stroke="black" stroke-linecap="round" stroke-linejoin="round"/>
<path fill-rule="evenodd" clip-rule="evenodd" d="M119.987 48.7125C119.987 50.1164 120.403 51.4887 121.182 52.656C121.961 53.8232 123.069 54.733 124.364 55.2702C125.66 55.8075 127.085 55.948 128.461 55.6741C129.836 55.4003 131.099 54.7242 132.091 53.7316C133.082 52.7389 133.758 51.4741 134.031 50.0973C134.305 48.7204 134.164 47.2932 133.628 45.9962C133.091 44.6992 132.182 43.5906 131.016 42.8107C129.85 42.0307 128.48 41.6144 127.077 41.6144C125.197 41.6144 123.394 42.3623 122.064 43.6934C120.734 45.0245 119.987 46.83 119.987 48.7125Z" fill="white" stroke="black" stroke-linecap="round" stroke-linejoin="round"/>
<path d="M127.115 45.5995V58.6048" stroke="black" stroke-linecap="round" stroke-linejoin="round"/>
<path d="M129.55 47.4935L127.208 49.8377" stroke="black" stroke-linecap="round" stroke-linejoin="round"/>
<path d="M44.8254 58.9611H133.081" stroke="black" stroke-linecap="round" stroke-linejoin="round"/>
<path fill-rule="evenodd" clip-rule="evenodd" d="M88.9111 62.5335H61.0942C61.0351 62.5336 60.9765 62.5221 60.9219 62.4996C60.8673 62.4771 60.8176 62.444 60.7757 62.4022C60.7339 62.3608 60.7014 62.311 60.6804 62.256C60.6594 62.201 60.6504 62.1422 60.654 62.0834C60.6858 60.9004 61.0204 59.7454 61.626 58.7291C62.2316 57.7128 63.0877 56.8691 64.1124 56.2791C65.137 55.689 66.2959 55.3722 67.4779 55.3591C68.6599 55.346 69.8254 55.6371 70.8629 56.2043C72.2251 54.6738 74.0002 53.5702 75.9745 53.0263C77.9487 52.4824 80.0379 52.5214 81.9905 53.1387C83.9431 53.7559 85.6759 54.9251 86.9802 56.5054C88.2844 58.0857 89.1046 60.0098 89.3419 62.0459C89.3509 62.1674 89.3141 62.2878 89.2389 62.3835C89.1965 62.4309 89.1445 62.4689 89.0864 62.4947C89.0282 62.5206 88.9653 62.5338 88.9017 62.5335" fill="#6097A7"/>
<path d="M88.9111 62.5335H61.0942C61.0351 62.5336 60.9765 62.5221 60.9219 62.4996C60.8673 62.4771 60.8176 62.444 60.7757 62.4022C60.7339 62.3608 60.7014 62.311 60.6804 62.256C60.6594 62.201 60.6504 62.1422 60.654 62.0834C60.6858 60.9004 61.0204 59.7454 61.626 58.7291C62.2316 57.7128 63.0877 56.8691 64.1124 56.2791C65.137 55.689 66.2959 55.3722 67.4779 55.3591C68.6599 55.346 69.8254 55.6371 70.8629 56.2043C72.2251 54.6738 74.0002 53.5702 75.9745 53.0263C77.9487 52.4824 80.0379 52.5214 81.9905 53.1387C83.9431 53.7559 85.6759 54.9251 86.9802 56.5054C88.2844 58.0857 89.1046 60.0098 89.3419 62.0459C89.3509 62.1674 89.3141 62.2878 89.2389 62.3835C89.1965 62.4309 89.1445 62.4689 89.0864 62.4947C89.0282 62.5206 88.9653 62.5338 88.9017 62.5335" stroke="black" stroke-linecap="round" stroke-linejoin="round"/>
<path d="M74.3564 19.6358L66.8917 28.0935" stroke="black"/>
<path fill-rule="evenodd" clip-rule="evenodd" d="M78.4025 66.3498H98.8764C98.1293 64.2291 96.7434 62.3927 94.9099 61.0938C93.0764 59.7948 90.8856 59.0973 88.6395 59.0973C86.3933 59.0973 84.2025 59.7948 82.369 61.0938C80.5355 62.3927 79.1496 64.2291 78.4025 66.3498Z" fill="#6097A7"/>
<path d="M78.4025 66.3498H98.8764C98.1293 64.2291 96.7434 62.3927 94.9099 61.0938C93.0764 59.7948 90.8856 59.0973 88.6395 59.0973C86.3933 59.0973 84.2025 59.7948 82.369 61.0938C80.5355 62.3927 79.1496 64.2291 78.4025 66.3498" stroke="black" stroke-linecap="round" stroke-linejoin="round"/>
<path d="M160.139 113.945C157.143 110.947 153.326 108.906 149.172 108.079C145.017 107.252 140.71 107.677 136.797 109.301C132.884 110.924 129.539 113.673 127.186 117.199C124.832 120.725 123.576 124.871 123.576 129.112C123.576 133.353 124.832 137.498 127.186 141.024C129.539 144.551 132.884 147.299 136.797 148.923C140.71 150.546 145.017 150.971 149.172 150.144C153.326 149.318 157.143 147.276 160.139 144.278C164.154 140.254 166.408 134.799 166.408 129.112C166.408 123.424 164.154 117.969 160.139 113.945Z" fill="white" stroke="black" stroke-miterlimit="10"/>
<path d="M144.994 121.746V136.468" stroke="black" stroke-linecap="round" stroke-linejoin="round"/>
<path d="M152.356 129.107H137.642" stroke="black" stroke-linecap="round" stroke-linejoin="round"/>
<path d="M52.337 74.1229C51.3145 74.1229 50.3149 74.4265 49.4647 74.9952C48.6145 75.564 47.9518 76.3723 47.5605 77.3181C47.1692 78.2638 47.0668 79.3046 47.2663 80.3086C47.4658 81.3126 47.9582 82.2348 48.6813 82.9587C49.4043 83.6826 50.3255 84.1755 51.3284 84.3752C52.3313 84.5749 53.3708 84.4724 54.3155 84.0807C55.2602 83.6889 56.0676 83.0255 56.6357 82.1744C57.2038 81.3232 57.507 80.3225 57.507 79.2988C57.5083 78.6188 57.3754 77.9451 57.116 77.3166C56.8566 76.6881 56.4758 76.117 55.9955 75.6362C55.5152 75.1553 54.9448 74.7741 54.317 74.5144C53.6891 74.2547 53.0163 74.1217 52.337 74.1229V74.1229Z" stroke="black" stroke-miterlimit="10"/>
<path d="M52.337 89.9224C51.3145 89.9224 50.3149 90.226 49.4647 90.7947C48.6145 91.3635 47.9518 92.1718 47.5605 93.1176C47.1692 94.0633 47.0668 95.104 47.2663 96.108C47.4658 97.1121 47.9582 98.0343 48.6813 98.7582C49.4043 99.4821 50.3255 99.975 51.3284 100.175C52.3313 100.374 53.3708 100.272 54.3155 99.8802C55.2602 99.4884 56.0676 98.825 56.6357 97.9739C57.2038 97.1227 57.507 96.122 57.507 95.0983C57.5083 94.4183 57.3754 93.7446 57.116 93.1161C56.8566 92.4876 56.4758 91.9165 55.9955 91.4356C55.5152 90.9548 54.9448 90.5736 54.317 90.3139C53.6891 90.0542 53.0163 89.9212 52.337 89.9224Z" fill="#6097A7" stroke="black" stroke-miterlimit="10"/>
<path d="M54.847 94.0199L51.7843 97.0767C51.695 97.1664 51.5737 97.217 51.4471 97.2173C51.3843 97.2182 51.322 97.2062 51.264 97.182C51.206 97.1579 51.1535 97.122 51.11 97.0767L49.6021 95.5764C49.5123 95.4852 49.4619 95.3623 49.4619 95.2342C49.4619 95.1061 49.5123 94.9832 49.6021 94.892C49.6916 94.8026 49.8128 94.7525 49.9392 94.7525C50.0656 94.7525 50.1869 94.8026 50.2764 94.892L51.4471 96.064L54.1633 93.3448C54.2071 93.298 54.26 93.2606 54.3188 93.2351C54.3776 93.2096 54.441 93.1964 54.5051 93.1964C54.5692 93.1964 54.6326 93.2096 54.6914 93.2351C54.7502 93.2606 54.8032 93.298 54.847 93.3448C54.9319 93.4367 54.9791 93.5572 54.9791 93.6824C54.9791 93.8075 54.9319 93.9281 54.847 94.0199Z" fill="white"/>
<path d="M52.337 106.303C51.3141 106.303 50.3141 106.607 49.4637 107.176C48.6133 107.745 47.9507 108.554 47.5596 109.501C47.1686 110.447 47.0668 111.488 47.267 112.492C47.4673 113.497 47.9606 114.419 48.6846 115.142C49.4085 115.866 50.3306 116.358 51.3341 116.557C52.3376 116.755 53.3774 116.651 54.322 116.258C55.2665 115.865 56.0733 115.2 56.6402 114.348C57.2072 113.495 57.5089 112.494 57.507 111.47C57.5082 110.79 57.3753 110.117 57.1158 109.489C56.8563 108.861 56.4754 108.291 55.9949 107.81C55.5145 107.33 54.944 106.95 54.3162 106.691C53.6885 106.433 53.0158 106.301 52.337 106.303Z" fill="#6097A7" stroke="black" stroke-miterlimit="10"/>
<path d="M54.847 110.401L51.7843 113.458C51.695 113.547 51.5737 113.598 51.4472 113.598C51.3843 113.599 51.322 113.587 51.264 113.563C51.206 113.539 51.1536 113.503 51.11 113.458L49.6021 111.948C49.5211 111.857 49.4781 111.738 49.4817 111.616C49.4852 111.494 49.5352 111.378 49.6213 111.292C49.7075 111.206 49.8233 111.156 49.9451 111.152C50.0668 111.149 50.1854 111.192 50.2764 111.273L51.4472 112.445L54.1633 109.726C54.2071 109.679 54.26 109.641 54.3188 109.616C54.3776 109.59 54.441 109.577 54.5051 109.577C54.5692 109.577 54.6326 109.59 54.6914 109.616C54.7502 109.641 54.8032 109.679 54.847 109.726C54.9319 109.818 54.9791 109.938 54.9791 110.063C54.9791 110.188 54.9319 110.309 54.847 110.401Z" fill="white"/>
<path d="M63.6229 76.6546H125.588" stroke="black" stroke-linecap="round" stroke-linejoin="round"/>
<path d="M63.6229 81.9242H95.3548" stroke="black" stroke-linecap="round" stroke-linejoin="round"/>
<path d="M63.6229 91.8821H125.588" stroke="black" stroke-linecap="round" stroke-linejoin="round"/>
<path d="M63.6229 97.1517H95.3548" stroke="black" stroke-linecap="round" stroke-linejoin="round"/>
<path d="M63.6229 108.61H125.588" stroke="black" stroke-linecap="round" stroke-linejoin="round"/>
<path d="M63.6229 113.88H95.3548" stroke="black" stroke-linecap="round" stroke-linejoin="round"/>
</g>
<defs>
<clipPath id="clip0_1147_11196">
<rect width="178" height="151" fill="white" transform="translate(0 0.0200195)"/>
</clipPath>
</defs>
</svg>
