<svg width="178" height="114" viewBox="0 0 178 114" fill="none" xmlns="http://www.w3.org/2000/svg">
<g clip-path="url(#clip0_1147_11246)">
<path d="M0.386841 93.2151H177.613" stroke="black" stroke-linecap="round" stroke-linejoin="round"/>
<path d="M160.266 108.172V21.133C160.219 18.736 159.223 16.4555 157.497 14.7917C155.771 13.1279 153.455 12.2168 151.058 12.2582H34.068C31.6709 12.2168 29.3553 13.1279 27.6291 14.7917C25.9029 16.4555 24.9072 18.736 24.8605 21.133V108.172" fill="#F3F2F0"/>
<path d="M160.266 108.172V21.133C160.219 18.736 159.223 16.4555 157.497 14.7917C155.771 13.1279 153.455 12.2168 151.058 12.2582H34.068C31.6709 12.2168 29.3553 13.1279 27.6291 14.7917C25.9029 16.4555 24.9072 18.736 24.8605 21.133V108.172" stroke="black" stroke-miterlimit="10"/>
<path d="M107.875 24.8238H36.4201C35.6125 24.8238 34.9578 25.4785 34.9578 26.2862V54.7677C34.9578 55.5754 35.6125 56.2301 36.4201 56.2301H107.875C108.683 56.2301 109.338 55.5754 109.338 54.7677V26.2862C109.338 25.4785 108.683 24.8238 107.875 24.8238Z" fill="white" stroke="black" stroke-miterlimit="10"/>
<path d="M66.0237 28.0658H37.3177V53.1351H66.0237V28.0658Z" fill="#6097A7"/>
<path d="M69.4281 31.6173H99.3952" stroke="black" stroke-linecap="round" stroke-linejoin="round"/>
<path d="M69.4281 37.165H80.5778" stroke="black" stroke-linecap="round" stroke-linejoin="round"/>
<path d="M69.4281 46.9142H88.4467" stroke="black" stroke-linecap="round" stroke-linejoin="round"/>
<path d="M107.875 63.2635H36.4201C35.6125 63.2635 34.9578 63.9182 34.9578 64.7259V93.2074C34.9578 94.0151 35.6125 94.6698 36.4201 94.6698H107.875C108.683 94.6698 109.338 94.0151 109.338 93.2074V64.7259C109.338 63.9182 108.683 63.2635 107.875 63.2635Z" fill="white" stroke="black" stroke-miterlimit="10"/>
<path d="M64.275 67.813H41.8441C40.9339 67.813 40.196 68.5509 40.196 69.4611V88.6268C40.196 89.537 40.9339 90.2749 41.8441 90.2749H64.275C65.1852 90.2749 65.9231 89.537 65.9231 88.6268V69.4611C65.9231 68.5509 65.1852 67.813 64.275 67.813Z" fill="#6097A7" stroke="black" stroke-miterlimit="10"/>
<path d="M72.3761 70.0647H99.3953" stroke="black" stroke-linecap="round" stroke-linejoin="round"/>
<path d="M72.3761 75.6124H82.4348" stroke="black" stroke-linecap="round" stroke-linejoin="round"/>
<path d="M72.3761 85.3616H89.5223" stroke="black" stroke-linecap="round" stroke-linejoin="round"/>
<path d="M148.706 24.8238H118.205C117.397 24.8238 116.743 25.4785 116.743 26.2862V93.3234C116.743 94.1311 117.397 94.7858 118.205 94.7858H148.706C149.514 94.7858 150.168 94.1311 150.168 93.3234V26.2862C150.168 25.4785 149.514 24.8238 148.706 24.8238Z" fill="white" stroke="black" stroke-miterlimit="10"/>
<path d="M143.39 87.2186L131.088 62.6135L148.582 52.8256" stroke="#E9E6E2"/>
<path d="M138.013 80.4638L120.518 45.8078" stroke="#E9E6E2"/>
<path d="M119.567 35.8497L132.125 45.9857L139.057 58.1103" stroke="#E9E6E2"/>
<path d="M133.34 71.9758L122.77 78.2122" stroke="#E9E6E2"/>
<path d="M145.008 62.8456L134.206 68.5095" stroke="#E9E6E2"/>
<path d="M142.694 38.8828L132.295 45.6375" stroke="#E9E6E2"/>
<path d="M141.882 84.2784L130.74 90.1666" stroke="#E9E6E2"/>
<path d="M130.105 33.6213L123.087 38.4727" stroke="#E9E6E2"/>
<path d="M132.906 42.264L134.67 40.4999C135.023 40.1502 135.264 39.7036 135.363 39.2167C135.462 38.7297 135.414 38.2244 135.224 37.7649C135.035 37.3054 134.714 36.9125 134.301 36.6359C133.889 36.3594 133.403 36.2118 132.906 36.2118C132.409 36.2118 131.924 36.3594 131.511 36.6359C131.098 36.9125 130.777 37.3054 130.588 37.7649C130.399 38.2244 130.35 38.7297 130.449 39.2167C130.548 39.7036 130.789 40.1502 131.142 40.4999L132.906 42.264ZM132.906 37.4281C133.13 37.4281 133.348 37.4944 133.534 37.6185C133.719 37.7426 133.864 37.919 133.95 38.1255C134.035 38.3319 134.058 38.559 134.014 38.7782C133.97 38.9973 133.863 39.1986 133.705 39.3566C133.547 39.5146 133.346 39.6222 133.126 39.6658C132.907 39.7093 132.68 39.687 132.474 39.6015C132.267 39.516 132.091 39.3712 131.967 39.1854C131.843 38.9996 131.776 38.7812 131.776 38.5578C131.774 38.4089 131.802 38.261 131.858 38.123C131.914 37.985 131.997 37.8597 132.103 37.7543C132.208 37.649 132.333 37.5659 132.471 37.5099C132.609 37.4538 132.757 37.426 132.906 37.4281Z" fill="#6097A7"/>
<path d="M141.657 63.1397L143.421 61.3833C143.886 60.9138 144.147 60.2798 144.147 59.6191C144.147 58.9584 143.886 58.3244 143.421 57.855C143.192 57.6233 142.919 57.4391 142.618 57.313C142.317 57.1868 141.994 57.1212 141.668 57.1197C141.342 57.1183 141.019 57.1811 140.717 57.3046C140.415 57.4281 140.14 57.6099 139.908 57.8395C139.677 58.0691 139.493 58.3422 139.367 58.643C139.24 58.9438 139.175 59.2665 139.173 59.5927C139.172 59.9189 139.235 60.2422 139.358 60.5441C139.482 60.846 139.663 61.1206 139.893 61.3523L141.657 63.1397ZM141.657 58.3038C141.881 58.3038 142.099 58.37 142.285 58.4941C142.471 58.6183 142.615 58.7947 142.701 59.0011C142.786 59.2075 142.809 59.4347 142.765 59.6538C142.722 59.873 142.614 60.0742 142.456 60.2322C142.298 60.3902 142.097 60.4978 141.878 60.5414C141.658 60.585 141.431 60.5626 141.225 60.4771C141.018 60.3916 140.842 60.2468 140.718 60.061C140.594 59.8752 140.528 59.6568 140.528 59.4334C140.527 59.2848 140.555 59.1374 140.611 58.9999C140.668 58.8624 140.751 58.7374 140.856 58.6323C140.961 58.5272 141.086 58.4441 141.224 58.3877C141.361 58.3312 141.509 58.3027 141.657 58.3038Z" fill="#6097A7"/>
<path d="M126.67 74.3203L128.434 72.5561C128.899 72.0867 129.16 71.4527 129.16 70.792C129.16 70.1313 128.899 69.4973 128.434 69.0278C127.969 68.56 127.338 68.2959 126.678 68.2937C126.019 68.2915 125.385 68.5514 124.917 69.0162C124.449 69.481 124.185 70.1127 124.183 70.7722C124.181 71.4317 124.441 72.065 124.906 72.5329L126.67 74.3203ZM126.67 69.4766C126.895 69.4751 127.116 69.5407 127.305 69.6651C127.493 69.7895 127.64 69.967 127.727 70.1752C127.814 70.3833 127.837 70.6126 127.793 70.834C127.75 71.0554 127.641 71.2587 127.482 71.4183C127.322 71.5778 127.119 71.6863 126.898 71.7299C126.676 71.7736 126.447 71.7504 126.239 71.6633C126.031 71.5763 125.853 71.4293 125.729 71.2411C125.604 71.0529 125.539 70.8319 125.54 70.6063C125.539 70.4576 125.568 70.3103 125.624 70.1728C125.68 70.0353 125.764 69.9103 125.869 69.8052C125.974 69.7001 126.099 69.6169 126.236 69.5605C126.374 69.5041 126.521 69.4756 126.67 69.4766Z" fill="#6097A7"/>
<path d="M166.108 108.257C166.058 109.521 165.521 110.716 164.609 111.593C163.698 112.47 162.482 112.96 161.218 112.961H23.9088C22.6439 112.96 21.4286 112.47 20.5171 111.593C19.6056 110.716 19.0686 109.521 19.0187 108.257H166.108Z" stroke="black"/>
<path d="M99.2637 108.257C99.2173 108.749 98.9883 109.207 98.6218 109.539C98.2552 109.871 97.7776 110.054 97.2829 110.052H87.8432C87.349 110.052 86.8724 109.869 86.5062 109.537C86.14 109.205 85.9105 108.749 85.8624 108.257H99.2637Z" stroke="black"/>
<path d="M46.5872 65.3758C64.3555 65.3758 78.7595 50.9718 78.7595 33.2035C78.7595 15.4352 64.3555 1.03119 46.5872 1.03119C28.819 1.03119 14.4149 15.4352 14.4149 33.2035C14.4149 50.9718 28.819 65.3758 46.5872 65.3758Z" fill="white" stroke="black" stroke-linecap="round" stroke-linejoin="round"/>
<path d="M21.1232 53.05L1.77185 68.9892" stroke="black" stroke-linecap="round" stroke-linejoin="round"/>
<path d="M30.4623 43.5485H48.6376V30.1781H30.4623V43.5485Z" fill="white"/>
<path d="M48.6376 43.5484H65.5748V30.1781L57.8529 18.4559L48.6376 30.1781V43.5484Z" fill="#E9E6E2"/>
<path d="M59.1218 43.5485H55.6322V39.4399C55.6322 39.1095 55.7635 38.7926 55.9971 38.559C56.2307 38.3254 56.5476 38.1941 56.8779 38.1941H57.8684C58.1988 38.1941 58.5156 38.3254 58.7492 38.559C58.9828 38.7926 59.1141 39.1095 59.1141 39.4399V43.5485H59.1218Z" fill="white"/>
<path d="M58.882 30.6578H56.4215V27.9188C56.4215 27.6848 56.5145 27.4605 56.6799 27.2951C56.8453 27.1296 57.0697 27.0367 57.3036 27.0367H58.0077C58.2416 27.0367 58.466 27.1296 58.6314 27.2951C58.7968 27.4605 58.8898 27.6848 58.8898 27.9188V30.6578H58.882Z" fill="white"/>
<path d="M43.91 38.2096H40.7222V34.6426C40.7222 34.341 40.842 34.0517 41.0553 33.8384C41.2686 33.6251 41.5579 33.5052 41.8596 33.5052H42.7726C43.0743 33.5052 43.3636 33.6251 43.5769 33.8384C43.7902 34.0517 43.91 34.341 43.91 34.6426V38.2019V38.2096Z" fill="#E9E6E2"/>
<path d="M36.3041 38.2096H33.1162V34.6426C33.1162 34.341 33.2361 34.0517 33.4494 33.8384C33.6627 33.6251 33.952 33.5052 34.2536 33.5052H35.1667C35.4683 33.5052 35.7576 33.6251 35.9709 33.8384C36.1842 34.0517 36.3041 34.341 36.3041 34.6426V38.2019V38.2096Z" fill="#E9E6E2"/>
<path d="M29.4487 30.4412V43.5485" stroke="black" stroke-miterlimit="10"/>
<path d="M48.6299 30.7275V43.5484" stroke="black" stroke-miterlimit="10"/>
<path d="M57.7059 18.4868L65.5826 29.8531V43.5484" stroke="black" stroke-miterlimit="10"/>
<path d="M24.9146 43.4865H70.0393" stroke="black" stroke-linecap="round" stroke-linejoin="round"/>
<path d="M36.2113 19.1755L28.3732 30.3097C28.3273 30.3704 28.2991 30.4427 28.2919 30.5185C28.2847 30.5943 28.2987 30.6707 28.3325 30.7389C28.3662 30.8072 28.4183 30.8648 28.4829 30.9051C28.5475 30.9454 28.622 30.967 28.6982 30.9673H48.4751C48.7356 30.9689 48.9927 30.9087 49.2253 30.7917C49.458 30.6747 49.6596 30.5042 49.8137 30.2942L57.7755 18.572H37.4261C37.191 18.5737 36.9595 18.629 36.749 18.7335C36.5385 18.8381 36.3546 18.9892 36.2113 19.1755Z" fill="#E77B5E" stroke="black" stroke-linecap="round" stroke-linejoin="round"/>
</g>
<defs>
<clipPath id="clip0_1147_11246">
<rect width="178" height="112.711" fill="white" transform="translate(0 0.644287)"/>
</clipPath>
</defs>
</svg>
