<svg width="24" height="24" viewBox="0 0 24 24" fill="none" xmlns="http://www.w3.org/2000/svg">
<path d="M7.755 17.796C10.095 19.668 13.905 19.668 16.245 17.796C18.585 15.924 18.585 12.876 16.245 11.004L7.755 17.796ZM21 0.012L3 0C1.335 0 0 1.068 0 2.4V21.6C0 22.932 1.335 24 3 24H21C22.665 24 24 22.932 24 21.6V2.4C24 1.068 22.665 0.012 21 0.012ZM9 2.4C9.825 2.4 10.5 2.94 10.5 3.6C10.5 4.26 9.825 4.8 9 4.8C8.175 4.8 7.5 4.26 7.5 3.6C7.5 2.94 8.175 2.4 9 2.4ZM4.5 2.4C5.325 2.4 6 2.94 6 3.6C6 4.26 5.325 4.8 4.5 4.8C3.675 4.8 3 4.26 3 3.6C3 2.94 3.675 2.4 4.5 2.4ZM12 21.6C7.035 21.6 3 18.372 3 14.4C3 10.428 7.035 7.2 12 7.2C16.965 7.2 21 10.428 21 14.4C21 18.372 16.965 21.6 12 21.6Z" fill="black"/>
</svg>
